<?xml version="1.0" standalone="no"?>
<!DOCTYPE svg PUBLIC "-//W3C//DTD SVG 20010904//EN"
 "http://www.w3.org/TR/2001/REC-SVG-20010904/DTD/svg10.dtd">
<svg version="1.0" xmlns="http://www.w3.org/2000/svg"
 width="920.000000pt" height="508.000000pt" viewBox="0 0 920.000000 508.000000"
 preserveAspectRatio="xMidYMid meet">

<g transform="translate(0.000000,508.000000) scale(0.100000,-0.100000)"
fill="#000000" stroke="none">
<path d="M5343 4463 l-50 -78 41 -57 c23 -32 268 -388 545 -793 l503 -735 125
0 124 0 -47 68 c-26 37 -52 72 -58 77 -7 6 -65 87 -130 180 -150 214 -135 192
-599 855 -213 305 -392 556 -396 558 -5 2 -31 -32 -58 -75z"/>
<path d="M3330 3910 c-21 -41 -529 -859 -589 -950 -32 -47 -67 -102 -80 -122
l-23 -38 119 0 120 0 175 273 c96 149 234 364 306 476 l131 204 -44 56 c-24
31 -57 72 -73 91 l-29 34 -13 -24z"/>
<path d="M2698 2427 c-125 -36 -186 -159 -133 -270 26 -54 69 -83 186 -123
129 -45 150 -55 183 -94 50 -60 27 -147 -47 -181 -49 -22 -131 -25 -191 -7
-26 8 -57 30 -86 60 -47 49 -67 57 -88 36 -39 -39 42 -141 138 -173 64 -21
170 -23 236 -5 70 20 129 80 143 148 29 140 -28 216 -214 281 -49 18 -109 43
-131 56 -103 60 -64 183 60 193 83 7 117 -4 175 -53 42 -36 56 -43 74 -36 32
12 33 52 2 89 -59 71 -204 108 -307 79z"/>
<path d="M534 2406 c-3 -8 -4 -25 -2 -38 2 -18 10 -24 36 -26 l32 -3 0 -294 0
-294 -32 -3 c-29 -3 -33 -7 -36 -35 -4 -41 9 -45 142 -41 81 2 101 6 110 21
18 28 -4 52 -53 55 l-41 3 0 124 0 124 133 3 132 3 0 35 0 35 -132 3 -133 3 0
129 0 130 130 0 c125 0 130 -1 130 -21 0 -50 47 -78 78 -47 16 16 16 120 0
136 -9 9 -78 12 -250 12 -198 0 -240 -2 -244 -14z"/>
<path d="M1262 2408 c-29 -29 -6 -68 40 -68 l28 0 -2 -292 -3 -293 -29 -5
c-37 -6 -55 -33 -40 -57 9 -15 27 -18 114 -18 87 0 105 3 114 18 15 24 -3 51
-40 57 l-29 5 0 290 0 290 29 5 c37 6 55 33 40 58 -9 14 -29 18 -110 20 -69 2
-103 -1 -112 -10z"/>
<path d="M1730 2401 c-16 -31 3 -61 41 -61 l29 0 -2 -292 -3 -293 -27 -3 c-38
-5 -54 -26 -40 -57 11 -24 15 -25 111 -25 107 0 125 8 119 52 -2 17 -11 24
-36 28 l-34 5 0 115 0 115 49 3 48 3 99 -153 c55 -84 105 -156 110 -160 15
-10 108 -10 124 1 8 5 12 21 10 37 -3 26 -7 29 -43 32 -39 3 -42 6 -117 120
l-77 116 46 18 c89 33 137 105 137 203 1 75 -31 136 -92 180 l-44 30 -198 3
c-192 3 -199 2 -210 -17z m387 -78 c45 -21 78 -88 67 -136 -20 -93 -60 -117
-197 -117 l-96 0 -3 131 c-2 72 -1 133 1 135 2 2 47 4 99 4 67 0 104 -5 129
-17z"/>
<path d="M3262 2408 c-8 -8 -12 -45 -12 -100 0 -84 1 -89 25 -100 39 -18 55 3
55 73 l0 59 75 0 75 0 0 -294 0 -295 -31 -3 c-39 -4 -59 -30 -43 -55 10 -15
27 -18 119 -18 92 0 109 3 119 18 16 25 -4 51 -43 55 l-31 3 0 295 0 294 75 0
75 0 0 -60 c0 -49 3 -61 20 -70 14 -8 26 -8 40 0 18 9 20 21 20 98 0 55 -4 92
-12 100 -17 17 -509 17 -526 0z"/>
<path d="M4374 2406 c-3 -8 -4 -25 -2 -38 2 -18 10 -24 36 -26 l32 -3 0 -237
c0 -130 5 -257 11 -282 24 -103 114 -162 248 -163 137 -1 222 46 256 142 12
35 15 94 15 292 l0 248 33 3 c29 3 32 6 32 38 l0 35 -109 0 c-93 0 -110 -3
-120 -17 -16 -26 4 -52 43 -56 l31 -3 0 -242 c0 -266 -4 -288 -63 -331 -41
-30 -183 -30 -224 0 -59 43 -63 65 -63 331 l0 242 31 3 c39 4 59 30 43 56 -9
14 -29 17 -118 20 -86 2 -107 0 -112 -12z"/>
<path d="M5270 2400 c-16 -30 3 -60 40 -60 l30 0 0 -295 0 -295 -30 0 c-36 0
-56 -30 -40 -60 10 -18 21 -20 109 -20 106 0 125 8 119 52 -2 18 -10 24 -35
26 l-33 3 0 241 0 241 190 -287 c117 -176 195 -286 205 -286 9 0 25 5 36 10
18 10 19 25 19 340 l0 329 33 3 c29 3 32 6 32 38 l0 35 -110 0 -110 0 0 -35
c0 -32 3 -35 33 -38 l32 -3 -1 -242 c0 -191 -3 -238 -12 -224 -7 10 -91 136
-187 280 l-175 262 -67 3 c-59 3 -68 0 -78 -18z"/>
<path d="M6192 2408 c-27 -27 -6 -68 35 -68 l23 0 0 -294 0 -295 -32 -3 c-26
-2 -34 -8 -36 -26 -6 -44 13 -52 119 -52 88 0 99 2 109 20 16 30 -4 60 -40 60
l-30 0 0 295 0 295 30 0 c36 0 56 30 40 60 -10 18 -21 20 -108 20 -63 0 -102
-4 -110 -12z"/>
<path d="M6644 2409 c-12 -21 -4 -183 10 -198 35 -35 72 17 64 91 l-3 33 75 0
75 0 0 -290 0 -290 -32 -3 c-43 -4 -59 -25 -45 -57 11 -24 15 -25 114 -25 57
0 109 4 116 9 8 5 12 21 10 37 -3 26 -7 29 -40 32 l-38 3 0 295 0 294 75 0 75
0 0 -60 c0 -49 3 -61 20 -70 14 -8 26 -8 40 0 19 10 20 19 18 108 l-3 97 -262
3 c-187 2 -264 -1 -269 -9z"/>
<path d="M7410 2400 c-16 -30 4 -60 41 -60 l29 0 -2 -292 -3 -293 -27 -3 c-38
-5 -54 -26 -40 -57 l12 -25 237 0 c131 0 243 4 250 8 7 4 13 35 14 71 2 51 -1
66 -15 77 -33 23 -66 -1 -66 -49 l0 -28 -136 3 -135 3 0 125 0 125 127 5 c107
4 129 8 138 23 8 12 8 22 0 35 -9 14 -31 18 -138 22 l-127 5 0 120 0 120 130
3 131 3 0 -28 c0 -41 13 -55 46 -51 l29 3 0 75 0 75 -242 3 c-234 2 -242 2
-253 -18z"/>
<path d="M8162 2408 c-27 -27 -6 -68 35 -68 l23 0 0 -294 0 -295 -32 -3 c-26
-2 -34 -8 -36 -26 -7 -47 9 -52 172 -52 226 0 312 27 378 119 46 65 61 125 61
256 1 92 -3 132 -17 170 -36 98 -91 153 -189 186 -42 15 -85 18 -217 19 -116
0 -170 -4 -178 -12z m392 -97 c61 -30 99 -88 116 -177 22 -114 -5 -258 -58
-317 -37 -41 -90 -58 -198 -64 l-104 -6 0 298 0 297 98 -4 c76 -3 107 -9 146
-27z"/>
<path d="M6205 1370 c-116 -25 -168 -141 -134 -300 19 -88 90 -140 189 -140
44 0 108 29 138 62 20 22 23 34 20 89 l-3 64 -79 0 c-55 0 -81 -4 -83 -12 -4
-10 13 -13 61 -13 l66 0 0 -54 c0 -51 -2 -56 -34 -75 -24 -15 -50 -21 -94 -21
-54 0 -65 4 -95 30 -55 48 -71 140 -42 238 19 65 58 94 129 99 51 4 59 1 128
-49 21 -15 32 -6 24 19 -14 43 -120 78 -191 63z"/>
<path d="M495 1362 c-12 -13 -3 -32 15 -32 19 0 20 -7 20 -176 0 -167 -1 -176
-20 -181 -11 -3 -20 -12 -20 -19 0 -10 16 -14 61 -14 52 0 60 2 57 18 -2 10
-11 16 -21 14 -15 -3 -17 7 -17 78 l0 80 33 0 c30 0 37 -7 94 -95 59 -90 64
-95 98 -95 24 0 35 4 35 15 0 14 -10 19 -35 16 -10 -1 -89 111 -101 143 -4 12
0 16 16 16 30 0 77 50 85 92 8 44 -14 100 -50 124 -20 13 -51 18 -135 19 -60
1 -112 0 -115 -3z m220 -38 c19 -8 45 -55 45 -84 0 -12 -13 -35 -29 -51 -27
-26 -36 -29 -95 -29 l-66 0 0 85 0 85 64 0 c35 0 72 -3 81 -6z"/>
<path d="M954 1361 c-11 -12 -2 -31 16 -31 19 0 20 -7 20 -176 0 -167 -1 -176
-20 -181 -11 -3 -20 -12 -20 -19 0 -12 25 -14 143 -12 l142 3 3 38 c3 32 0 37
-17 37 -16 0 -21 -6 -21 -24 0 -24 -2 -24 -85 -24 l-85 0 0 84 0 83 78 3 c99
4 97 22 -3 26 l-75 3 0 79 0 80 85 0 c85 0 85 0 85 -26 0 -16 5 -24 13 -21 7
2 12 20 12 43 l0 39 -133 0 c-73 0 -135 -1 -138 -4z"/>
<path d="M1465 1362 c-14 -14 -3 -32 21 -32 30 0 33 12 -46 -195 -42 -108 -64
-153 -79 -160 -41 -19 -24 -35 39 -35 44 0 60 4 60 14 0 7 -9 16 -20 19 -19 5
-19 6 -3 51 l17 46 91 0 91 0 17 -46 c16 -45 16 -46 -3 -51 -11 -3 -20 -12
-20 -19 0 -10 16 -14 61 -14 52 0 60 2 57 18 -2 9 -11 16 -20 14 -11 -2 -33
44 -88 188 -40 105 -78 194 -84 197 -14 9 -83 13 -91 5z m119 -155 c15 -43 30
-85 33 -93 4 -11 -9 -14 -71 -14 -42 0 -76 1 -76 3 0 2 14 41 30 88 17 46 33
90 36 98 7 22 18 3 48 -82z"/>
<path d="M1865 1361 c-12 -12 -3 -31 15 -31 19 0 20 -7 20 -174 0 -166 -1
-175 -20 -181 -11 -3 -20 -13 -20 -21 0 -11 24 -14 135 -14 l135 0 0 51 c0 56
-21 65 -30 13 l-5 -29 -75 0 -75 0 -3 177 -2 177 22 3 c13 2 23 10 23 18 0 11
-14 15 -58 15 -32 1 -60 -1 -62 -4z"/>
<path d="M2212 1355 c-9 -15 -11 -81 -2 -95 13 -21 30 -1 30 36 l0 34 50 0 50
0 -2 -177 c-3 -177 -3 -178 -26 -181 -42 -6 -16 -27 38 -30 66 -4 87 3 70 23
-6 7 -18 11 -26 8 -12 -4 -14 23 -14 176 l0 181 50 0 50 0 0 -40 c0 -29 4 -40
15 -40 13 0 15 11 13 57 l-3 58 -143 0 c-89 1 -146 -3 -150 -10z"/>
<path d="M2623 1363 c-20 -7 -15 -23 11 -33 15 -5 46 -44 80 -99 l56 -91 0
-85 c0 -63 -3 -85 -12 -84 -27 3 -38 -2 -38 -16 0 -12 14 -15 69 -15 39 0 73
5 76 11 9 14 0 22 -28 24 -21 2 -22 7 -25 82 l-3 80 62 97 c43 66 68 96 81 96
13 0 18 6 16 17 -3 14 -14 18 -55 19 -28 1 -57 -2 -63 -6 -15 -9 -4 -30 16
-30 8 0 14 -2 14 -5 0 -4 -78 -135 -85 -143 -2 -3 -85 122 -93 141 -2 4 6 7
18 7 15 0 20 5 18 17 -2 13 -15 17 -53 19 -28 1 -56 0 -62 -3z"/>
<path d="M3351 1349 c-29 -31 -33 -66 -17 -129 14 -54 14 -55 -10 -81 -34 -36
-46 -82 -31 -126 25 -75 118 -104 201 -64 42 21 47 21 75 7 34 -18 57 -20 66
-6 3 5 -13 19 -35 30 -40 20 -40 21 -25 50 8 16 15 36 15 45 0 9 9 15 25 15
16 0 25 6 25 15 0 12 -13 15 -60 15 -47 0 -60 -3 -60 -15 0 -8 9 -15 19 -15
18 0 19 -3 10 -30 -6 -16 -15 -30 -20 -30 -6 0 -37 27 -71 59 l-61 60 47 45
c25 25 47 55 48 68 5 79 -16 108 -78 108 -31 0 -49 -6 -63 -21z m102 -30 c14
-23 1 -64 -33 -102 -35 -39 -47 -31 -56 36 -5 38 -3 51 12 68 21 23 62 22 77
-2z m-19 -255 c36 -36 64 -70 61 -74 -3 -5 -21 -14 -40 -20 -66 -22 -135 20
-135 81 0 22 33 79 45 79 2 0 33 -30 69 -66z"/>
<path d="M3979 1360 c-14 -9 -3 -30 17 -30 12 0 14 -30 14 -181 0 -99 -4 -178
-8 -175 -13 8 -35 -11 -28 -23 9 -14 113 -14 121 0 9 13 2 20 -22 23 -16 3
-18 16 -21 144 -1 78 1 142 5 142 5 0 37 -50 72 -111 43 -73 70 -109 80 -107
8 2 42 49 76 105 33 56 63 105 68 109 4 4 7 -59 7 -139 0 -81 -3 -146 -7 -146
-21 3 -33 -2 -33 -16 0 -12 13 -15 60 -15 44 0 60 4 60 14 0 7 -9 16 -20 19
-19 5 -20 14 -20 181 0 171 1 176 21 176 14 0 19 5 17 17 -2 13 -13 18 -37 18
-33 0 -37 -4 -103 -115 -37 -63 -70 -123 -74 -133 -3 -10 -10 -17 -14 -15 -5
2 -44 61 -87 133 -68 113 -81 130 -105 131 -15 0 -32 -2 -39 -6z"/>
<path d="M4674 1358 c-8 -13 6 -28 28 -28 17 0 19 -4 13 -27 -13 -55 -127
-333 -134 -329 -4 3 -13 1 -21 -4 -11 -7 -12 -12 -4 -20 15 -15 116 -9 122 8
2 7 -5 12 -17 12 -25 0 -26 15 -6 64 l15 36 89 0 88 0 16 -41 c17 -44 15 -59
-9 -59 -8 0 -14 -7 -14 -15 0 -12 13 -15 59 -15 33 0 62 4 65 9 6 10 -24 39
-32 31 -6 -5 -27 45 -109 260 l-49 125 -47 1 c-26 1 -50 -3 -53 -8z m124 -151
c17 -52 32 -97 32 -100 0 -4 -34 -7 -76 -7 -42 0 -74 3 -72 8 2 4 18 49 37
100 18 50 36 92 40 92 3 0 21 -42 39 -93z"/>
<path d="M5076 1362 c-13 -13 -5 -31 17 -34 22 -3 22 -5 25 -175 l2 -173 -25
-6 c-14 -3 -25 -12 -25 -20 0 -17 115 -20 126 -3 7 12 -15 31 -28 23 -15 -10
-19 23 -16 166 l3 143 114 -172 c78 -117 119 -171 130 -169 14 3 16 30 19 195
2 184 3 191 23 196 42 11 14 32 -42 32 -43 0 -54 -3 -57 -17 -2 -13 3 -18 17
-18 20 0 21 -5 21 -150 0 -82 -3 -150 -7 -149 -5 0 -57 75 -118 167 -102 154
-112 166 -142 168 -17 1 -34 0 -37 -4z"/>
<path d="M5685 1362 c-14 -14 -3 -32 21 -32 17 0 24 -4 21 -12 -2 -7 -33 -87
-68 -177 -44 -113 -69 -166 -81 -169 -10 -2 -18 -11 -18 -18 0 -10 16 -14 60
-14 47 0 60 3 60 15 0 8 -9 15 -20 15 -24 0 -24 3 -4 57 l17 43 87 0 88 0 16
-40 c21 -52 20 -60 -5 -60 -12 0 -19 -5 -16 -12 5 -17 119 -18 124 -1 2 6 -6
13 -19 15 -19 2 -29 20 -59 103 -20 55 -54 143 -75 194 l-39 95 -42 2 c-23 1
-45 -1 -48 -4z m148 -254 c-6 -12 -143 -10 -143 2 0 9 27 84 60 165 12 30 12
30 50 -65 20 -52 35 -98 33 -102z"/>
<path d="M6558 1359 c-15 -10 0 -29 23 -29 19 0 19 -7 17 -177 -3 -177 -3
-178 -26 -181 -13 -2 -21 -9 -19 -15 2 -8 48 -13 145 -15 l142 -3 0 41 c0 44
-26 58 -32 18 -3 -22 -7 -23 -88 -23 l-85 1 0 79 0 80 78 5 c42 3 77 10 77 15
0 6 -35 12 -77 15 l-78 5 -3 78 -3 77 85 0 c80 0 85 -1 88 -22 2 -13 10 -23
18 -23 11 0 15 11 15 40 l0 40 -133 0 c-73 0 -138 -2 -144 -6z"/>
<path d="M6985 1362 c-12 -13 -3 -32 15 -32 20 0 20 -5 18 -177 -3 -150 -5
-178 -18 -178 -8 0 -16 -8 -18 -17 -3 -16 5 -18 57 -18 48 0 61 3 61 15 0 8
-9 15 -19 15 -19 0 -20 9 -23 145 -2 80 0 144 4 143 4 -2 36 -50 71 -108 34
-58 69 -106 77 -108 10 -2 40 39 85 115 l70 118 3 -140 c3 -138 -1 -171 -16
-161 -13 8 -35 -11 -28 -23 9 -14 113 -14 121 0 9 13 2 20 -22 23 -17 3 -18
17 -21 179 l-2 176 22 3 c35 5 29 33 -8 35 -17 0 -35 -2 -41 -5 -5 -4 -42 -64
-82 -134 -41 -71 -76 -128 -80 -128 -3 0 -37 54 -75 120 -38 66 -73 125 -77
131 -7 12 -64 20 -74 11z"/>
<path d="M7595 1361 c-12 -12 -3 -31 15 -31 19 0 20 -7 20 -174 0 -166 -1
-175 -20 -181 -11 -3 -20 -13 -20 -21 0 -12 23 -14 143 -12 l142 3 3 38 c3 32
0 37 -17 37 -15 0 -21 -6 -21 -23 0 -22 -4 -23 -85 -24 l-85 -2 0 85 0 84 80
0 c64 0 80 3 80 15 0 12 -16 15 -80 15 l-80 0 0 80 0 81 82 -3 c70 -3 82 -6
84 -21 7 -49 37 -26 32 24 l-3 34 -133 0 c-73 1 -135 -1 -137 -4z"/>
<path d="M8014 1358 c-8 -12 5 -28 22 -28 12 0 14 -29 14 -176 0 -167 -1 -176
-20 -181 -11 -3 -20 -12 -20 -19 0 -10 16 -14 61 -14 52 0 60 2 57 18 -2 9
-10 17 -18 17 -12 0 -15 25 -18 148 -1 81 1 147 5 146 5 0 58 -76 118 -167 61
-92 115 -167 120 -167 6 0 11 74 13 197 2 195 3 197 25 200 12 2 22 10 22 18
0 12 -13 15 -60 15 -47 0 -60 -3 -60 -15 0 -8 10 -16 23 -18 22 -3 22 -5 22
-153 0 -82 -3 -149 -7 -149 -5 0 -58 77 -120 170 -106 159 -114 169 -143 168
-17 -1 -33 -5 -36 -10z"/>
<path d="M8525 1361 c-3 -2 -5 -28 -5 -58 0 -40 4 -53 15 -53 11 0 15 11 15
41 l0 40 50 -3 c28 -2 50 -6 50 -10 0 -5 0 -84 0 -178 0 -163 -1 -170 -20
-170 -11 0 -20 -7 -20 -15 0 -12 13 -15 59 -15 69 0 102 26 44 34 -17 3 -18
17 -21 179 l-2 177 49 0 50 0 3 -37 c2 -26 8 -38 18 -38 18 0 27 82 10 99 -11
11 -285 18 -295 7z"/>
</g>
</svg>
